<?xml version="1.0" ?><svg viewBox="0 0 512 512" xmlns="http://www.w3.org/2000/svg"><g fill="currentColor" id="Teeth_Protection"><path  d="M429.1738,84.9294a7.9986,7.9986,0,0,0-5.6523-2.3389h-.0127l-48.877.0752H374.43A131.3486,131.3486,0,0,1,312.32,66.9987L259.5938,38.59a8.0048,8.0048,0,0,0-7.6055.0088L199.8955,66.8161a131.3141,131.3141,0,0,1-62.3633,15.8057h-.0874L88.69,82.5905h-.0049a8.0005,8.0005,0,0,0-8,8V233.7946A214.7254,214.7254,0,0,0,172.3018,409.64l79.2168,55.3867a8.0006,8.0006,0,0,0,9.1679,0L339.9043,409.64a214.7255,214.7255,0,0,0,91.6172-175.8467V90.5905A8,8,0,0,0,429.1738,84.9294ZM285.6678,331.535l-13.5673-44.5981A16.3857,16.3857,0,0,0,256.4243,275.32h0a16.3856,16.3856,0,0,0-15.6762,11.6167L227.1806,331.535a20.989,20.989,0,0,1-40.6818-2.0938L164.4627,216.3718a66.831,66.831,0,0,1,28.4434-68.404,42.8647,42.8647,0,0,1,23.9619-7.23,45.2384,45.2384,0,0,1,21.1694,5.2949,39.8929,39.8929,0,0,0,36.774,0,45.225,45.225,0,0,1,21.1689-5.2948,42.8749,42.8749,0,0,1,23.9621,7.23,66.8309,66.8309,0,0,1,28.4433,68.404L326.35,329.4412a20.9891,20.9891,0,0,1-40.6819,2.0938Z"/><path d="M303.9814,229.8805a8,8,0,1,0,15.7051,3.0606l4.1612-21.3565a41.879,41.879,0,0,0-17.84-42.8613,8,8,0,1,0-8.918,13.2852,25.9111,25.9111,0,0,1,11.0538,26.5146Z"/></g></svg>