<?xml version="1.0" ?><!DOCTYPE svg  PUBLIC '-//W3C//DTD SVG 1.1//EN'  'http://www.w3.org/Graphics/SVG/1.1/DTD/svg11.dtd'><svg enable-background="new 0 0 91 91" height="91px" id="Layer_1" version="1.1" viewBox="0 0 91 91" width="91px" xml:space="preserve" xmlns="http://www.w3.org/2000/svg" xmlns:xlink="http://www.w3.org/1999/xlink"><g><g><path d="M49.812,46.784c-0.147-4.002-1.711-6.299-4.104-7.953c-2.408-1.624-5.814-2.385-9.189-2.378    c-3.13-0.007-6.207,0.647-8.292,1.591l-0.832,0.366l-0.837-0.366c-1.665-0.763-3.994-1.317-6.464-1.521l-4.268,0.057    c-2.513,0.286-4.916,1.021-6.739,2.259c-2.396,1.647-3.964,3.95-4.108,7.938c-0.011,0.323-0.014,0.619-0.014,0.886    c0.043,5.644,1.337,7.673,2.907,10.516c1.616,2.8,3.467,6.376,3.417,12.995c-0.002,7.686,1.3,12.196,2.717,14.581    c1.443,2.396,1.927,2.753,3.499,2.753c1.656,0,2.229-1.673,2.302-2.562c0.321-3.248-0.239-8.335,1.365-13.761    c0.467-1.503,1.029-3.377,2.152-5.078c1.515-2.286,5.614-4.075,8.146,0c1.071,1.734,1.684,3.575,2.145,5.078    c1.232,4.133,1.588,8.453,1.296,11.753c-0.399,4.583,2.288,4.568,2.375,4.568c1.431,0,2.058-0.356,3.489-2.753    c1.423-2.384,2.729-6.896,2.725-14.581c-0.047-6.635,1.807-10.195,3.42-12.999c1.571-2.841,2.854-4.869,2.905-10.512    C49.824,47.383,49.812,47.097,49.812,46.784z" fill="#F4F2E8"/><path d="M55.419,39.594l26.279,20.682l2.743-3.556c2.153-2.788,1.63-6.82-1.151-8.968L62.07,30.98L55.419,39.594z" fill="#68C1E0"/><g><path d="M43.672,5.489c6.278,4.854,7.438,13.875,2.589,20.151c-4.848,6.282-13.866,7.442-20.152,2.589     c-6.274-4.853-7.434-13.872-2.585-20.147C28.371,1.799,37.392,0.642,43.672,5.489z" fill="#9AE0FF"/><g><path d="M52.017,46.702c-0.158-4.336-1.766-7.413-5.074-9.701c-2.635-1.775-6.32-2.755-10.374-2.755h-0.104      c-3.229,0-6.622,0.656-9.074,1.751c-1.912-0.86-4.438-1.454-7.116-1.676c-0.07-0.005-0.14-0.007-0.211-0.005l-4.268,0.056      c-0.074,0-0.146,0.007-0.22,0.014c-3.036,0.346-5.708,1.253-7.74,2.632C4.54,39.284,2.929,42.358,2.77,46.72      c-0.008,0.344-0.012,0.658-0.012,0.959c0.043,5.913,1.45,8.449,2.94,11.134l0.26,0.469c1.605,2.779,3.166,5.984,3.121,11.891      c-0.002,8.771,1.645,13.385,3.033,15.721c1.564,2.598,2.607,3.821,5.392,3.821c2.715,0,4.32-2.311,4.499-4.552      c0.104-1.055,0.122-2.252,0.144-3.52c0.045-2.81,0.099-6.307,1.134-9.804l0.042-0.136c0.435-1.403,0.928-2.992,1.844-4.378      c0.463-0.698,1.484-1.44,2.466-1.44c0.272,0,1.101,0,1.96,1.383c0.936,1.512,1.478,3.148,1.906,4.547      c1.052,3.53,1.505,7.616,1.213,10.931c-0.21,2.414,0.267,4.273,1.413,5.526c1.227,1.339,2.729,1.443,3.159,1.443h0.002      c2.634,0,3.836-1.234,5.385-3.828c1.388-2.326,3.041-6.939,3.035-15.729c-0.042-5.885,1.457-8.978,3.146-11.915l0.221-0.396      c1.56-2.805,2.904-5.227,2.96-11.184c0-0.149-0.002-0.305-0.006-0.461L52.017,46.702z M37.283,88.506v-2.207c0,0,0,0,0.002,0      L37.283,88.506z M45.212,56.701l-0.207,0.372c-1.822,3.166-3.765,7.131-3.716,14.102c0.004,8.178-1.509,11.935-2.41,13.445      c-0.814,1.362-1.122,1.612-1.182,1.65c-0.007,0.002-0.077,0.021-0.31,0.026c-0.091-0.08-0.412-0.632-0.278-2.166      c0.344-3.897-0.158-8.481-1.385-12.595c-0.555-1.802-1.227-3.727-2.382-5.595c-1.391-2.241-3.42-3.475-5.713-3.475      c-2.358,0-4.772,1.343-6.149,3.422c-1.265,1.913-1.881,3.906-2.378,5.507l-0.052,0.162c-1.213,4.104-1.272,7.938-1.321,11.016      c-0.02,1.225-0.036,2.281-0.126,3.196c-0.016,0.181-0.097,0.41-0.167,0.527c-0.219-0.002-0.327-0.014-0.361-0.014      c-0.01,0-0.013,0.002-0.012,0.004c-0.132-0.095-0.44-0.465-1.161-1.662c-0.899-1.515-2.409-5.275-2.408-13.437      c0.055-6.997-1.887-10.955-3.69-14.078l-0.243-0.44c-1.417-2.551-2.353-4.236-2.389-9.008c0-0.248,0.004-0.524,0.012-0.805      c0.104-2.899,1.048-4.754,3.144-6.193c1.388-0.941,3.388-1.607,5.64-1.877l4.046-0.053c2.151,0.186,4.196,0.666,5.656,1.332      l0.76,0.333l5.646,2.998c0.331,0.175,0.684,0.258,1.035,0.258c0.79,0,1.556-0.425,1.951-1.172      c0.57-1.078,0.163-2.416-0.915-2.986l-1.045-0.555c1.1-0.178,2.246-0.28,3.362-0.28h0.104c3.138,0,6.019,0.73,7.883,1.987      c1.484,1.025,3.02,2.563,3.153,6.135c0,0.177,0.002,0.347,0.005,0.51l0.006,0.349C47.571,52.454,46.634,54.145,45.212,56.701z" fill="#3B6A75"/><path d="M87.908,51.714c-0.296-2.282-1.454-4.309-3.247-5.693L63.44,29.248      c-0.463-0.364-1.057-0.532-1.639-0.459c-0.586,0.072-1.118,0.377-1.479,0.844l-1.957,2.535L49.24,25.12      c4.07-7.065,2.41-16.252-4.219-21.378c-2.931-2.262-6.43-3.456-10.12-3.456c-5.182,0-9.965,2.35-13.126,6.447      c-5.584,7.229-4.246,17.655,2.983,23.245c2.932,2.263,6.433,3.459,10.123,3.459c4.442,0,8.585-1.738,11.672-4.813l9.112,7.039      l-1.994,2.582c-0.741,0.959-0.569,2.335,0.382,3.085l26.279,20.683c0.391,0.306,0.873,0.472,1.365,0.472      c0.091,0,0.183-0.006,0.273-0.017c0.586-0.073,1.116-0.377,1.478-0.844l2.739-3.554C87.593,56.256,88.201,53.997,87.908,51.714z       M34.881,29.021c-2.705,0-5.272-0.879-7.423-2.538c-5.302-4.099-6.284-11.749-2.186-17.053c2.316-3.004,5.828-4.729,9.629-4.729      c2.705,0,5.271,0.879,7.42,2.536c5.305,4.102,6.289,11.751,2.19,17.056C42.193,27.299,38.683,29.021,34.881,29.021z       M62.455,34.097l2.458,1.942l-3.947,5.109l-2.461-1.937L62.455,34.097z M82.692,55.369l-1.379,1.792L64.437,43.88l3.941-5.102      L81.942,49.5c0.878,0.679,1.439,1.664,1.586,2.776C83.671,53.391,83.376,54.489,82.692,55.369z" fill="#3B6A75"/></g></g></g><g><rect fill="#FFFFFF" height="2.944" transform="matrix(0.7848 -0.6198 0.6198 0.7848 -2.8304 22.031)" width="11.465" x="24.574" y="13.619"/><rect fill="#FFFFFF" height="2.944" transform="matrix(0.7847 -0.6199 0.6199 0.7847 -3.5082 26.6649)" width="18.814" x="27.221" y="16.91"/><path d="M14.79,41.063c-3.746,2.405-5.294,7.009-3.853,11.454c0.303,0.935,1.169,1.528,2.102,1.528    c0.224,0,0.455-0.034,0.681-0.108c1.158-0.376,1.795-1.621,1.418-2.782c-0.813-2.509,0.007-5.07,2.038-6.375    c1.025-0.658,1.324-2.023,0.666-3.051C17.182,40.703,15.817,40.405,14.79,41.063z" fill="#FFFFFF"/></g></g></svg>