<?xml version="1.0" ?><!DOCTYPE svg  PUBLIC '-//W3C//DTD SVG 1.1//EN'  'http://www.w3.org/Graphics/SVG/1.1/DTD/svg11.dtd'><svg enable-background="new 0 0 91 91" height="91px" id="Layer_1" version="1.1" viewBox="0 0 91 91" width="91px" xml:space="preserve" xmlns="http://www.w3.org/2000/svg" xmlns:xlink="http://www.w3.org/1999/xlink"><g><g><path d="M27.62,38.631c-4.703-1.795-7.899-6.354-7.899-11.466c0-6.766,5.506-12.269,12.271-12.269    c5.625,0,10.413,3.737,11.839,9.051l3.465-0.044c0.046,0,0.092,0,0.139,0.004c0.064,0.004,0.128,0.013,0.194,0.019l-0.234-0.868    c-0.365-1.365-0.907-2.669-1.606-3.878l-0.573-0.988l4.911-4.91l-4.244-4.252l-4.915,4.912l-0.988-0.572    c-1.21-0.7-2.515-1.24-3.878-1.604l-1.104-0.293V4.523h-6.009v6.949l-1.103,0.293c-1.363,0.363-2.666,0.903-3.879,1.604    l-0.989,0.572l-4.914-4.912l-4.246,4.246l4.916,4.916l-0.574,0.991c-0.697,1.199-1.237,2.504-1.604,3.875l-0.294,1.104H9.354    v6.005h6.946l0.294,1.104c0.369,1.373,0.909,2.681,1.603,3.881l0.574,0.991l-4.914,4.905l4.246,4.251l4.916-4.911l0.991,0.575    c1.185,0.688,2.472,1.218,3.826,1.584c-0.129-1.103-0.205-2.333-0.217-3.739C27.62,38.751,27.62,38.69,27.62,38.631z" fill="#9AE0FF"/></g><g><path d="M83.104,37.738c-0.181-4.813-2.061-7.582-4.943-9.568c-2.899-1.955-6.995-2.877-11.06-2.866    c-3.765-0.011-7.475,0.782-9.979,1.911L56.12,27.66l-1.01-0.445c-2.007-0.911-4.806-1.586-7.783-1.823l-5.132,0.066    c-3.03,0.344-5.918,1.228-8.121,2.711c-2.879,1.987-4.764,4.764-4.939,9.566c-0.004,0.38-0.016,0.735-0.016,1.061    c0.056,6.787,1.61,9.237,3.495,12.658c1.949,3.366,4.181,7.671,4.125,15.642c-0.008,9.254,1.56,14.679,3.264,17.552    c1.735,2.883,2.316,3.313,4.21,3.313c1.998,0,2.688-2.016,2.773-3.079c0.384-3.915-0.287-10.035,1.648-16.563    c0.553-1.807,1.229-4.071,2.584-6.113c1.825-2.757,6.758-4.906,9.804,0c1.295,2.086,2.033,4.308,2.583,6.113    c1.48,4.977,1.912,10.177,1.566,14.142c-0.485,5.517,2.75,5.501,2.859,5.501c1.718,0,2.475-0.43,4.196-3.313    c1.711-2.873,3.28-8.298,3.271-17.552c-0.054-7.983,2.178-12.275,4.129-15.646c1.887-3.426,3.427-5.868,3.488-12.654    C83.118,38.46,83.108,38.11,83.104,37.738z" fill="#F4F2E8"/><path d="M85.344,38.133l-0.008-0.479c-0.19-5.077-2.067-8.676-5.927-11.335c-3.104-2.095-7.45-3.248-12.232-3.248    h-0.153c-2.974,0-6.061,0.476-8.656,1.297l0.001-3.925h-7.887c-0.197-0.54-0.417-1.068-0.656-1.585l5.573-5.573l-9.502-9.513    l-5.583,5.579c-0.517-0.241-1.046-0.46-1.584-0.656V0.808H25.284v7.888c-0.537,0.196-1.066,0.415-1.586,0.656L18.12,3.774    l-9.508,9.503l5.581,5.581c-0.241,0.515-0.46,1.043-0.657,1.585H5.648v13.445h7.888c0.195,0.543,0.413,1.07,0.655,1.589    L8.61,41.046l9.51,9.516l5.578-5.575c0.519,0.239,1.047,0.458,1.586,0.654v7.888h5.94c1.756,3.185,3.329,7.01,3.283,13.564    c-0.008,10.449,1.938,15.932,3.582,18.705c1.841,3.055,2.976,4.394,6.123,4.394c3.008,0,4.792-2.58,4.994-5.092    c0.123-1.247,0.147-2.676,0.17-4.186c0.056-3.411,0.121-7.657,1.393-11.941l0.045-0.147c0.528-1.719,1.124-3.668,2.268-5.389    c0.634-0.958,1.979-1.929,3.323-1.929c1.05,0,1.94,0.612,2.724,1.873c1.109,1.791,1.781,3.744,2.339,5.573    c1.28,4.304,1.835,9.278,1.482,13.312c-0.245,2.779,0.289,4.908,1.589,6.325c1.36,1.485,3.017,1.602,3.492,1.602h0.002    c2.979,0,4.293-1.357,6.116-4.402c1.642-2.755,3.595-8.235,3.586-18.709c-0.047-7.21,1.864-11.121,3.854-14.554l0.271-0.494    c1.839-3.325,3.43-6.197,3.493-13.236C85.352,38.582,85.348,38.361,85.344,38.133z M24.397,40.319l-1.484-0.861l-4.79,4.788    l-3.196-3.198l4.792-4.781l-0.861-1.487c-0.66-1.137-1.176-2.384-1.532-3.706l-0.445-1.648h-6.769v-4.52h6.769l0.445-1.65    c0.355-1.317,0.873-2.561,1.532-3.695l0.867-1.485l-4.797-4.797l3.194-3.192l4.79,4.788l1.48-0.854    c1.163-0.672,2.407-1.186,3.698-1.527l1.658-0.44V5.271h4.52v6.779l1.66,0.44c1.291,0.342,2.533,0.856,3.691,1.525l1.481,0.856    l4.792-4.788l3.194,3.198L44.3,18.071l0.859,1.485c0.651,1.122,1.155,2.337,1.506,3.612l-2.27,0.029    c-1.691-5.337-6.624-9.044-12.388-9.044c-7.178,0-13.015,5.838-13.015,13.012c0,5.247,3.178,9.941,7.902,11.963    c0.013,0.852,0.049,1.643,0.106,2.378C26.091,41.19,25.218,40.795,24.397,40.319z M27.333,34.323    c-2.364-1.551-3.877-4.222-3.877-7.158c0-4.714,3.836-8.549,8.552-8.549c3.428,0,6.413,1.991,7.772,4.968    c-2.686,0.535-5.066,1.463-6.971,2.748C29.877,28.355,28.099,30.936,27.333,34.323z M77.95,49.873l-0.253,0.46    c-2.174,3.75-4.486,8.447-4.429,16.767c0.008,9.94-1.851,14.546-2.957,16.403c-1.304,2.183-1.523,2.226-2.236,2.228    c-0.369-0.069-0.869-0.949-0.683-3.075c0.406-4.632-0.195-10.09-1.654-14.986c-0.647-2.134-1.438-4.415-2.82-6.642    c-1.595-2.569-3.909-3.982-6.516-3.982c-3.073,0-5.752,1.973-7.043,3.925c-1.501,2.258-2.229,4.637-2.815,6.548l-0.053,0.166    c-1.447,4.893-1.52,9.478-1.58,13.16c-0.021,1.479-0.043,2.753-0.151,3.856c-0.009,0.128-0.175,1.029-0.549,1.029    c-0.899,0-0.953,0-2.291-2.22c-1.105-1.865-2.959-6.479-2.951-16.396c0.059-8.33-2.252-13.027-4.4-16.735l-0.283-0.515    c-1.676-3.022-2.887-5.207-2.936-11.067c0-0.169,0.003-0.346,0.007-0.532l0.008-0.446c0.136-3.644,1.323-5.98,3.957-7.798    c1.771-1.192,4.195-1.997,7.02-2.331l4.91-0.062c2.619,0.218,5.144,0.809,6.96,1.631l0.943,0.416l6.798,3.612    c0.334,0.177,0.691,0.261,1.045,0.261c0.8,0,1.572-0.43,1.974-1.184c0.578-1.088,0.165-2.44-0.925-3.019l-2.333-1.24    c1.693-0.36,3.536-0.567,5.309-0.567h0.153c3.847,0,7.396,0.905,9.719,2.472c2.652,1.829,3.842,4.166,3.979,7.752l0.007,0.447    c0.004,0.203,0.008,0.399,0.008,0.568C80.831,44.665,79.622,46.851,77.95,49.873z" fill="#3B6A75"/></g><path d="M40.259,45.701c-0.941,0-1.816-0.599-2.122-1.544c-1.459-4.495,0.106-9.148,3.892-11.578   c1.041-0.664,2.419-0.363,3.085,0.673c0.665,1.038,0.365,2.419-0.674,3.084c-2.053,1.318-2.88,3.908-2.057,6.444   c0.38,1.173-0.263,2.432-1.437,2.813C40.719,45.667,40.486,45.701,40.259,45.701z" fill="#FFFFFF"/></g></svg>