<?xml version="1.0" ?><!DOCTYPE svg  PUBLIC '-//W3C//DTD SVG 1.1//EN'  'http://www.w3.org/Graphics/SVG/1.1/DTD/svg11.dtd'><svg enable-background="new 0 0 48 48" height="48px" id="Layer_3" version="1.1" viewBox="0 0 48 48" width="48px" xml:space="preserve" xmlns="http://www.w3.org/2000/svg" xmlns:xlink="http://www.w3.org/1999/xlink"><path d="M25.691,47.992C25.794,47.993,25.896,48,26,48s0.206-0.007,0.309-0.008H25.691z"/><g><rect height="6" width="6" x="7.5" y="24"/><rect height="6" width="6" x="16.667" y="24"/><rect height="6" width="6" x="7.5" y="33"/><rect height="6" width="6" x="16.667" y="33"/><polygon points="14,0 10,0 10,4 0,4 0,15.9 0,19.9 0,48 22.667,48 22.667,44 4,44 4,19.9 22.667,19.9 22.667,15.9 4,15.9 4,8 10,8    10,12 14,12 14,8 22.667,8 22.667,4 14,4  "/><path d="M25.98,4h0.039C26.013,4,26.007,4,26,4S25.987,4,25.98,4z"/><path d="M26.502,4.012v4.013C36.209,8.293,44,16.228,44,26c0,9.771-7.791,17.706-17.498,17.975v4.013C38.42,47.72,48,37.982,48,26   S38.42,4.28,26.502,4.012z"/><polygon points="40,28 40,24 30.501,24 30.501,12.083 26.502,12.083 26.502,24 26.502,28 30.501,28  "/></g></svg>