<?xml version="1.0" encoding="utf-8"?>
<!-- Generator: Adobe Illustrator 19.0.0, SVG Export Plug-In . SVG Version: 6.00 Build 0)  -->
<svg version="1.1" id="Calque_1" xmlns="http://www.w3.org/2000/svg" xmlns:xlink="http://www.w3.org/1999/xlink" x="0px" y="0px"
	 viewBox="125 74.2 862.7 644.8" style="enable-background:new 125 74.2 862.7 644.8;" xml:space="preserve">
<style type="text/css">
	.st0{fill:#9E616A;}
	.st1{fill:#2F2E41;}
	.st2{fill:#FFB6B6;}
	.st3{fill:#E6E6E6;}
	.st4{fill:#FFFFFF;}
	.st5{fill:#FFB8B8;}
	.st6{fill:#CCCCCC;}
	.st7{fill:#6153CC;}
	.st8{fill:#3F3D56;}
	.st9{fill:#F2F2F2;}
	.st10{fill:#6C63FF;}
</style>
<polygon class="st0" points="754.9,686.9 737.8,686.9 729.6,620.6 754.9,620.6 "/>
<path class="st1" d="M764,716.6h-12.3l-2.2-11.6l-5.6,11.6h-32.6c-4.1,0-7.3-3.3-7.3-7.3c0-2.4,1.2-4.7,3.2-6l26.1-18v-11.7
	l27.4,1.6L764,716.6z"/>
<polygon class="st0" points="856.9,665.2 843.1,675.4 797.1,627.2 817.4,612.1 "/>
<path class="st1" d="M881.9,683.7L872,691l-8.7-8l2.4,12.7l-26.2,19.5c-3.3,2.4-7.9,1.7-10.3-1.5c-1.4-1.9-1.8-4.5-1.1-6.7l10.2-30
	l-7-9.4l23-15.1L881.9,683.7z"/>
<path class="st1" d="M774.9,345.3c0,0,32.6,28.1,17.5,108.4l-18.3,78.6l59.8,99.3l-19.1,23.2L737,547.4l-28.2-66.1L701,363.4
	L774.9,345.3z"/>
<polygon class="st1" points="724.4,500 722.5,530.3 728.5,659.6 756.7,654.7 762.1,562.6 "/>
<polygon class="st2" points="362.4,702.4 377.8,702.4 385.1,643.2 362.4,643.2 "/>
<path class="st1" d="M358.5,697.4h4.3l16.9-6.9l9,6.9l0,0c10.6,0,19.3,8.6,19.3,19.3v0.6h-49.5V697.4z"/>
<polygon class="st2" points="421.9,692.8 436.9,696.1 457.1,640 435,635 "/>
<path class="st1" d="M419.2,687l4.2,1l18-3l7.3,8.7l0,0c10.4,2.3,16.9,12.7,14.5,23l-0.1,0.6l-48.3-10.9L419.2,687z"/>
<path class="st1" d="M343,340.4c-7.2,21.7-6.4,45.3,1.7,70.6l3.5,142.4c0,0-5.2,93.4,11.6,126.2h24.3l12.1-134.8l1.5-90.4l52.2,76.3
	l-33.2,146.7l30,2.7l53.9-159.2L434,366.4L343,340.4z"/>
<path class="st3" d="M623.7,278.6c18.6-16.8,46.3-25.2,69.5-15.8c-23.8,13.2-42.2,34.5-51.9,60c-3.7,9.8-6.8,21.2-15.9,26.4
	c-5.7,3.3-12.7,3.4-19,1.9c-6.3-1.6-12.2-4.8-17.9-7.9h-1.6C594.2,319.1,605.1,295.4,623.7,278.6z"/>
<path class="st4" d="M693.1,263.3c-20.6,2.7-39.8,11.7-54.9,25.9c-3.3,3-6.1,6.5-8.3,10.4c-2,3.8-3,8.2-2.8,12.5
	c0.1,4.1,0.7,8.2-0.2,12.2c-1,4.1-3.7,7.7-7.4,9.7c-4.5,2.6-9.8,3.4-14.9,4.1c-5.7,0.7-11.6,1.3-16.5,4.5c-0.6,0.4-1.2-0.6-0.6-0.9
	c8.6-5.6,19.4-3.5,28.6-7.2c4.3-1.7,8.1-4.8,9.5-9.4c1.2-4,0.6-8.3,0.5-12.4c-0.3-4.2,0.5-8.5,2.3-12.3c2-4,4.7-7.6,7.9-10.7
	c7.1-7,15.4-12.9,24.3-17.4c10.2-5.2,21.2-8.6,32.6-10.1C693.8,262.1,693.8,263.2,693.1,263.3L693.1,263.3z"/>
<path class="st4" d="M642.8,284.4c-4.2-5.9-3.5-14,1.6-19.1c0.5-0.5,1.3,0.3,0.8,0.8c-4.8,4.7-5.4,12.3-1.5,17.8
	C644.2,284.4,643.2,285,642.8,284.4L642.8,284.4z"/>
<path class="st4" d="M626.7,310.1c7.1,1.3,14.4-0.2,20.4-4.1c0.6-0.4,1.2,0.6,0.6,0.9c-6.3,4-13.9,5.5-21.2,4.2
	C625.7,311,626,310,626.7,310.1L626.7,310.1z"/>
<path class="st4" d="M670.8,268.6c1.1,2.6,3.5,4.4,6.3,4.9c0.7,0.1,0.4,1.2-0.3,1.1c-3.1-0.5-5.7-2.6-6.9-5.4
	c-0.1-0.3-0.1-0.6,0.2-0.8C670.3,268.2,670.6,268.3,670.8,268.6L670.8,268.6z"/>
<path class="st3" d="M718.8,343.7c-0.4-0.1-0.9-0.1-1.3-0.2c-5.9-0.8-11.9-1.1-17.9-0.9c-0.5,0-0.9,0-1.4,0
	c-14.4,0.6-28.5,3.9-41.8,9.6c-5.3,2.3-10.3,5-15.2,8.1c-6.7,4.2-13.6,9.4-21.1,11.1c-0.8,0.2-1.6,0.3-2.4,0.4L587,345.1
	c0-0.1-0.1-0.2-0.1-0.3l-1.3-1c0.2-0.2,0.5-0.4,0.7-0.5c0.1-0.1,0.3-0.2,0.4-0.3s0.2-0.1,0.3-0.2c0,0,0.1,0,0.1-0.1
	c0.1-0.1,0.2-0.1,0.2-0.2c1.4-1,2.8-2,4.2-3l0,0c10.8-7.5,22.4-13.8,34.6-18.6c0.4-0.1,0.7-0.3,1.1-0.4c5.5-2,11.2-3.6,16.9-4.8
	c3.2-0.6,6.3-1.1,9.6-1.3c8.3-0.7,16.6-0.1,24.7,1.8c16.1,3.7,30.9,12.6,39.7,26.4C718.4,343,718.6,343.4,718.8,343.7z"/>
<path class="st4" d="M718.4,344.1c-18-10.3-38.8-14.6-59.5-12.4c-4.4,0.4-8.8,1.5-12.9,3.3c-3.9,1.8-7.3,4.7-9.8,8.3
	c-2.4,3.3-4.4,7-7.5,9.6c-3.3,2.7-7.6,3.9-11.8,3.3c-5.2-0.7-9.9-3.1-14.3-5.7c-5-2.9-10.1-5.9-15.9-6.3c-0.7-0.2-0.6-1.3,0.1-1.2
	c10.2,0.7,17.6,8.9,27.2,11.5c4.5,1.2,9.3,1.1,13.2-1.8c3.4-2.5,5.5-6.3,7.8-9.6c2.4-3.5,5.5-6.4,9.3-8.5c4-2,8.3-3.2,12.7-3.7
	c9.9-1.3,20-1.1,29.9,0.7c11.3,2,22.1,5.9,32.1,11.6C719.7,343.5,719,344.4,718.4,344.1L718.4,344.1z"/>
<path class="st4" d="M665.6,330.6c0.2-7.3,5.6-13.3,12.8-14.3c0.7-0.1,0.9,1,0.2,1.1c-6.7,0.9-11.7,6.5-11.9,13.3
	C666.6,331.4,665.5,331.3,665.6,330.6L665.6,330.6z"/>
<path class="st4" d="M637.2,341.4c4.9,5.3,11.6,8.5,18.7,9c0.7,0.1,0.6,1.2-0.1,1.1c-7.4-0.6-14.4-3.9-19.5-9.4
	C635.9,341.6,636.8,340.9,637.2,341.4L637.2,341.4z"/>
<path class="st4" d="M697.4,334.8c-0.6,2.7,0.1,5.6,2.1,7.7c0.5,0.5-0.4,1.2-0.9,0.7c-2.1-2.3-3-5.5-2.3-8.5c0-0.3,0.3-0.5,0.6-0.5
	C697.3,334.2,697.5,334.5,697.4,334.8L697.4,334.8z"/>
<path class="st3" d="M176.3,701.3c-1.5,5.4-5.3,10-9.9,13.3c-0.8,0.5-1.5,1-2.3,1.5c-0.2,0.1-0.5,0.3-0.7,0.4
	c-0.3,0.2-0.5,0.3-0.8,0.5H141c-0.4-0.8-0.8-1.6-1.1-2.4c-9.3-19.5-15.8-40.5-14.7-61.9c0.4-8.3,2.2-16.5,5.2-24.3
	c5.9-15.5,16.8-28.9,31.7-35.6c0.4-0.2,0.8-0.3,1.1-0.5c-0.1,0.4-0.2,0.8-0.4,1.3c-1.6,5.8-2.7,11.6-3.4,17.6
	c-0.1,0.5-0.1,0.9-0.1,1.4c-1.4,14.3-0.2,28.8,3.7,42.7v0.1c0.9,3.1,1.8,6.1,3,9.1c0.9,2.3,1.8,4.7,2.9,7
	C173.2,681,179,691.2,176.3,701.3z"/>
<path class="st4" d="M163.4,592.8c-0.2,0.3-0.4,0.5-0.6,0.8c-4.4,5.8-8.1,12.1-11.1,18.8c-0.2,0.3-0.3,0.7-0.4,1
	c-4.1,9.3-6.7,19.1-7.8,29.2c0,0.1,0,0.1,0,0.2c-0.3,2.4-0.4,4.7-0.5,7.1c-0.2,4.5,0.3,8.9,1.4,13.2c1.1,3.5,2.9,6.7,5.5,9.4
	c0.3,0.3,0.5,0.5,0.8,0.8c0.2,0.2,0.4,0.4,0.6,0.6c2,1.9,4.2,3.7,6.1,5.8c0.9,0.9,1.7,1.9,2.4,3c2.2,3.6,2.8,8,1.6,12.1
	c-1.4,5.1-4.5,9.3-7.6,13.4c-1.6,2-3.2,4.1-4.6,6.3c-0.5,0.8-1,1.6-1.4,2.4h-1.3c0.4-0.8,0.9-1.6,1.4-2.4c3.7-5.8,8.8-10.7,11.5-17
	c1.8-4.3,2.4-9.1,0.1-13.3c-0.7-1.2-1.5-2.4-2.4-3.4c-1.8-2.1-4-3.8-6-5.7c-0.5-0.5-1-1-1.5-1.5c-2.5-2.5-4.4-5.6-5.6-8.9
	c-1.4-4.2-2-8.7-1.9-13.1c0-2.8,0.1-5.7,0.4-8.5c0-0.4,0.1-0.7,0.1-1.1c2-17.9,8.8-34.9,19.7-49.2c0.2-0.3,0.4-0.5,0.6-0.8
	C163,591.5,163.8,592.3,163.4,592.8z"/>
<path class="st4" d="M142.7,643.3c-7.2-1.2-12.4-7.4-12.4-14.7c0-0.3,0.3-0.5,0.6-0.5c0.3,0,0.5,0.2,0.5,0.5
	c0,6.8,4.8,12.5,11.5,13.6C143.7,642.3,143.4,643.4,142.7,643.3L142.7,643.3z"/>
<path class="st4" d="M149.5,672.8c5.9-4.1,10-10.3,11.5-17.3c0.2-0.7,1.2-0.4,1.1,0.3c-1.6,7.3-5.9,13.7-12,18
	C149.5,674.2,148.9,673.2,149.5,672.8L149.5,672.8z"/>
<path class="st4" d="M151.3,612.3c2.6,1,5.6,0.7,7.9-1c0.6-0.4,1.1,0.5,0.6,0.9c-2.5,1.8-5.8,2.2-8.7,1.1c-0.3-0.1-0.5-0.4-0.4-0.7
	C150.7,612.4,151,612.2,151.3,612.3z"/>
<path class="st3" d="M238.4,631.5c-0.4,0.3-0.7,0.5-1.1,0.8c-4.7,3.6-9.2,7.6-13.3,12c-0.3,0.3-0.6,0.7-1,1l0,0
	c-9.7,10.5-17.4,22.8-22.7,36.1v0.1c0,0,0,0,0,0.1c-2.1,5.3-3.8,10.8-5,16.4c-1.2,5.5-2.2,11.3-4.1,16.6c-0.3,0.8-0.6,1.6-0.9,2.4
	h-44.5c0.1-0.8,0.3-1.6,0.5-2.4c2.3-11.6,5.8-22.9,10.5-33.7c0.2-0.4,0.3-0.7,0.5-1.1c2.4-5.3,5.3-10.5,8.6-15.3l0,0l0,0
	c1.8-2.7,3.7-5.2,5.8-7.7c5.3-6.4,11.7-11.8,18.7-16.2c0,0,0.1,0,0.1-0.1c14-8.7,30.7-12.9,46.6-9.3l0,0
	C237.6,631.3,238,631.4,238.4,631.5z"/>
<path class="st4" d="M238.4,632c-0.3,0.1-0.7,0.2-1,0.3c-7,2-13.8,4.8-20.2,8.3c-0.3,0.2-0.6,0.3-1,0.5
	c-8.8,4.9-16.9,11.2-23.8,18.6l0,0c-0.1,0.1-0.2,0.2-0.2,0.3c-1.6,1.7-3.1,3.5-4.6,5.3c-2.9,3.4-5.2,7.3-6.8,11.4
	c-1.3,3.5-1.7,7.2-1.3,10.8c0,0.4,0.1,0.7,0.1,1.1c0,0.3,0.1,0.6,0.1,0.9c0.7,4,1.8,8,1.5,12.1c-0.4,4.2-2.6,8.1-6,10.6
	c-1.2,0.9-2.4,1.7-3.7,2.3c-1.9,1-3.8,1.8-5.8,2.4h-3.9c0.5-0.2,1-0.3,1.6-0.5c1.9-0.5,3.7-1.2,5.5-1.9c1-0.4,2-0.9,3-1.5
	c4-2.3,7.4-5.8,8.1-10.6c0.6-4.1-0.6-8.3-1.3-12.3c-0.1-0.7-0.2-1.4-0.3-2.1c-0.5-3.5-0.2-7.1,0.9-10.5c1.4-4.2,3.6-8.2,6.4-11.7
	c1.7-2.3,3.5-4.5,5.5-6.5c0.2-0.3,0.5-0.5,0.8-0.8c7.1-7.4,15.2-13.8,24.2-18.7l0,0c6.7-3.7,13.8-6.6,21.1-8.7l0,0
	c0.3-0.1,0.7-0.2,1-0.3C238.9,630.7,239,631.8,238.4,632z"/>
<path class="st4" d="M191.5,659.9c-5-5.3-5.4-13.4-1-19.1c0.4-0.6,1.3,0.1,0.9,0.6c-4.1,5.4-3.7,12.9,1,17.8
	C192.8,659.7,192,660.4,191.5,659.9L191.5,659.9z"/>
<path class="st4" d="M179.1,687.5c7.2,0.3,14.2-2.2,19.6-6.9c0.5-0.5,1.2,0.4,0.7,0.9c-5.7,4.9-13,7.4-20.4,7.1
	C178.3,688.6,178.4,687.5,179.1,687.5z"/>
<path class="st4" d="M217,640.3c1.5,2.4,4.1,3.9,6.9,4c0.7,0,0.6,1.1-0.1,1.1c-3.1-0.1-6-1.7-7.6-4.4c-0.2-0.2-0.1-0.6,0.1-0.8
	S216.8,640,217,640.3z"/>
<path class="st5" d="M581.4,247.3c-3.9,5.1-11.2,6.1-16.3,2.2c-0.5-0.4-1.1-0.9-1.5-1.4l-37.8,16.4l3.7-21.1l35.3-12.4
	c5-4,12.4-3.2,16.4,1.8C584.6,237.1,584.7,243.1,581.4,247.3z"/>
<path class="st3" d="M556.2,253.9L468.4,293l-0.2-0.1l-100.1-35.6c-15.5-8.1-22-26.8-14.8-42.8l0,0c7.5-16.6,27-23.9,43.6-16.4
	c1.2,0.5,2.3,1.1,3.4,1.8l74.5,44.9l72.2-9.4L556.2,253.9z"/>
<path class="st6" d="M987.7,717.8c0,0.7-0.5,1.2-1.2,1.2l0,0H126.2c-0.7,0-1.2-0.5-1.2-1.2s0.5-1.2,1.2-1.2h860.3
	C987.2,716.6,987.7,717.1,987.7,717.8L987.7,717.8z"/>
<path class="st3" d="M438.3,371l-88.5-14.1c-8.8-2.9-13.7-12.4-10.9-21.3c0.3-0.8,0.6-1.6,1-2.4l4-8l-1.6-84.3
	c-0.4-22.3,11.2-43.2,30.3-54.7l8.6-5.2l4.4-11.1l40.2,1l0.1,14.5l14.4,23v0.1l-0.9,125l-4,12.9l6,15L438.3,371z"/>
<circle class="st5" cx="409.5" cy="119.6" r="36.5"/>
<path class="st1" d="M371.4,127.6c-1.1-4.6-0.6-11.1,0-15.7c1.6-12.1,8.3-23.6,18.6-30.5c1.9-1.5,4.2-2.4,6.7-2.6
	c2.4-0.1,5,1.2,5.8,3.5c1.2-3.1,3.7-5.5,6.8-6.7s6.4-1.6,9.6-1.3c12.9,1.1,24.2,9.1,29.4,21c1,2.3,3.7-6.2,4.9-4.1
	c1.1,2.3,3.1,4,5.5,4.9c2.4,0.7,3.4,10.7,4.4,8.3c2.4,5.6-0.2,12.2-5.8,14.6c-1.5,0.7-3.2,1-4.8,0.9c-2.5-0.1-4.8-1-7.3-1.4
	c-8.7-1.4-18,4.9-19.8,13.6c-0.7-2.5-1.7-4.9-3.2-7c-1.5-2.2-3.9-3.5-6.5-3.6c-2.5,0.1-4.7,1.7-6.3,3.6s-2.8,4.1-4.4,6
	c-4.8,5.5-11.2,18.4-18,17.4C381.7,147.7,372.9,133.9,371.4,127.6z"/>
<path class="st4" d="M630.4,288.8c0.5-3.4-1.5-6.8-4.8-7.9l-98.4-32.8c-0.9-0.3-1.9-0.4-2.9-0.3l-24.7,2.3l-14.2,1.3l-26.1,2.5
	c-3.2,0.3-5.9,2.8-6.4,6l-13.3,82.9c-0.5,3.3,1.3,6.6,4.5,7.8l99.4,38.4c0.5,0.2,1,0.3,1.4,0.4c0.7,0.1,1.5,0.1,2.2,0l64.3-9.5
	c3.1-0.5,5.6-2.9,6-6L630.4,288.8z"/>
<path class="st7" d="M446.4,344.7l99.4,38.4c0.1,0.1,0.3,0.1,0.5,0.1l64.2-9.5c0.4-0.1,0.7-0.4,0.8-0.8l12.9-85.1
	c0.1-0.4-0.2-0.8-0.6-1l-0.7-0.2l-97.8-32.5H525c-0.1,0-0.2,0-0.2,0l-60.2,5.7l-4.8,0.4c-0.4,0-0.7,0.3-0.8,0.7l-13.2,82.8
	C445.7,344.2,446,344.6,446.4,344.7z"/>
<path class="st1" d="M464.6,259.7l60.2-5.7c0.1,0,0.2,0,0.2,0h0.1l97.8,32.5l-25.8,2.7l-9.7,1l-27.4,3.1c-0.1,0-0.2,0-0.2,0
	s-0.1,0-0.2,0L464.6,259.7z"/>
<path class="st8" d="M444.1,350.6l99.4,38.4c0.5,0.2,1,0.3,1.5,0.4c0.7,0.1,1.5,0.1,2.2,0l64.2-9.5c3.1-0.5,5.6-2.9,6-6l12.9-85.1
	c0.2-1.3,0-2.5-0.4-3.7c-0.1-0.2-0.1-0.3-0.2-0.5c-0.5-1.1-1.3-2-2.3-2.7c-0.6-0.4-1.2-0.7-1.9-1h-0.1l-98.3-32.7
	c-0.4-0.1-0.8-0.2-1.2-0.3c-0.6-0.1-1.1-0.1-1.7,0l-24.7,2.3l-14.2,1.4l-26.1,2.5c-1.1,0.1-2.1,0.4-3,1c-0.1,0-0.1,0.1-0.2,0.1
	l-0.1,0.1c-1.6,1.1-2.7,2.8-3,4.8l-13.3,82.7C439.1,346.1,441,349.3,444.1,350.6z M454.7,260.2c0.2-1,0.6-1.9,1.3-2.7
	c0.2-0.2,0.4-0.5,0.7-0.7c0.7-0.5,1.5-0.9,2.3-1.1c0.2,0,0.3-0.1,0.5-0.1l44-4.2l21-2c0.1,0,0.3,0,0.4,0c0.3,0,0.6,0,0.9,0.1
	c0.3,0,0.6,0.1,0.8,0.2l98.4,32.9c0.1,0,0.1,0.1,0.2,0.1c0.9,0.3,1.7,0.9,2.3,1.7c0.9,1.2,1.4,2.7,1.1,4.1l-12.9,85.1
	c-0.3,2.3-2.2,4.2-4.5,4.5l-64.3,9.5c-0.9,0.1-1.9,0-2.7-0.3l-99.4-38.4c-2.4-0.9-3.8-3.4-3.4-5.9L454.7,260.2z"/>
<path class="st8" d="M455.7,255.6c0.1-0.2,0.1-0.3,0.3-0.4l0.1-0.1c0,0,0.1,0,0.1-0.1c0.2-0.1,0.4-0.1,0.6,0l2.1,0.7L560,291.5
	l23.7-2.5l13.2-1.4l28-3l2.5-0.3l0.5-0.1c0.4,0,0.8,0.2,1,0.7v0.1c0,0.4-0.2,0.8-0.6,0.9c-0.1,0-0.2,0.1-0.2,0.1l-3.4,0.4l-27.6,2.9
	l-9.7,1l-27.4,3c-0.1,0-0.2,0-0.2,0s-0.1,0-0.2,0l-103-36.3l-0.3-0.1c-0.1,0-0.2-0.1-0.2-0.1C455.7,256.4,455.6,256,455.7,255.6z"/>
<path class="st8" d="M545.3,389.6c-0.5-0.1-0.8-0.5-0.7-1l14.4-96.4c0.1-0.5,0.5-0.8,1-0.8l0,0c0.5,0.1,0.8,0.5,0.7,1l-14.5,96.3
	C546.2,389.3,545.8,389.7,545.3,389.6L545.3,389.6z"/>
<path class="st8" d="M582.1,383.5l-9.7,1l11.3-95.5c0,0,12.9-2.3,13.2-1.4C597.2,288.1,582.2,382.9,582.1,383.5z"/>
<polygon class="st8" points="456.3,256.7 456,300.3 533.1,329.7 560.8,292.5 "/>
<path class="st8" d="M627.5,284.3c-0.6-0.8-1.5-1.4-2.5-1.7l-98.4-32.8c-0.3-0.1-0.6-0.2-0.8-0.2c-0.3-0.1-0.6-0.1-1-0.1l0.2-1
	l1-0.7l23.4-16.9l78,23.9l0.1,27.1V284.3z"/>
<path class="st4" d="M460.2,326.7c0.1,0,0.2,0,0.3,0.1l30.2,9.9c0.8,0.3,1.2,1.1,1,1.9c-0.3,0.8-1.1,1.2-1.9,1l-30.2-9.9
	c-0.8-0.3-1.2-1.1-1-1.9C458.8,327,459.5,326.6,460.2,326.7L460.2,326.7z"/>
<circle class="st9" cx="582" cy="497.4" r="12"/>
<circle class="st9" cx="276" cy="541.4" r="12"/>
<circle class="st9" cx="526" cy="144.4" r="12"/>
<path class="st5" d="M545.7,344.3c-5.9,2.6-12.7-0.1-15.3-6c-0.3-0.6-0.5-1.3-0.6-1.9l-41-4.1l13.5-16.6l36.9,6.5
	c6.4-1.1,12.4,3.2,13.4,9.6C553.5,337,550.6,342.2,545.7,344.3z"/>
<path class="st3" d="M520.5,337.7l-95.7-8.8l-0.1-0.2l-69.9-80c-9.5-14.6-6-34.1,8-44.5l0,0c14.6-10.8,35.2-7.7,46,7
	c0.8,1,1.5,2.1,2.1,3.2L454,290l67.6,27.1L520.5,337.7z"/>
<path class="st1" d="M760.7,183.8c-2.4-17.4-5.4-36.2-17.7-48.7c-16-16.3-42.1-16.6-58.5-0.7c-0.4,0.4-0.9,0.9-1.3,1.3
	c-9,9.5-12.9,23-13.3,36s2.6,26,5.8,38.7c17.1,0.3,34.1-3,49.8-9.8c3.9-1.7,7.8-3.6,11.9-4.7c4.1-1.1,7.1,1.6,11,3.5l2.1-4.1
	c1.7,3.2,7.1,2.3,9-0.8C761.6,191.4,761.2,187.5,760.7,183.8z"/>
<path class="st0" d="M692.9,281.1l-69.9,1.5c-3.1-5.3-9.8-7.1-15.1-4c-5.3,3.1-7.1,9.8-4,15.1c2.9,4.9,9,6.9,14.2,4.5
	c9.3,0.5,81.8,10.8,86.1,4.2c4.4-6.7,27.8-30.5,27.8-30.5l-18-25.6L692.9,281.1z"/>
<circle class="st0" cx="709.9" cy="168.2" r="32.8"/>
<path class="st10" d="M555.7,245.8"/>
<path class="st8" d="M762.5,231.4c-3.9-7.7-5.7-17.2-14-19.7c-5.6-1.7-28.1,0.8-33.2,3.7c-8.4,4.7-0.8,13.6-5.8,21.9
	c-5.4,9-20.1,27.1-25.5,36.2c-3.7,6.2,8.8,24.4,6.8,31.4c-2,6.9-2.1,14.7,1.3,21.1c3.1,5.7-1.4,10.7,1.7,16.4
	c3.2,5.9,7.1,28.1,4.2,34.1l-2,6c19.8,1.2,36.5-22.5,56.3-25c4.9-0.6,10-1.4,14-4.3c5.9-4.2,8.3-11.8,9.8-18.9
	C783.1,299.4,778.3,263.2,762.5,231.4z"/>
<path class="st0" d="M792.2,312.7c-2.8-7.5-7.8-40.5-7.8-40.5l-31.3-0.9l15.3,37.8l-41.8,58.5c0,0,0.1,0.1,0.2,0.4
	c-6-1-11.7,3.1-12.7,9.2c-1,6,3.1,11.7,9.2,12.7c6,1,11.7-3.1,12.7-9.2c0-0.3,0.1-0.6,0.1-0.9c0.3,0.2,0.7,0.1,1-0.2
	C741.8,373.6,795,320.3,792.2,312.7z"/>
<path class="st8" d="M795.4,291.9c-2.9-12.1-5.8-24.3-10.6-35.8c-4.8-11.5-11.8-22.3-21.5-30.1c-3.1-2.5-6.6-4.7-10.5-5.4
	c-3.9-0.8-8.3,0.1-11.1,3c-4.4,4.6-3.1,12-1.5,18.2c4.8,18.2,9.5,36.4,14.3,54.6c13.7-1.5,27.5-2.9,41.2-4.4L795.4,291.9z"/>
<path class="st1" d="M750.1,172.8c-1.2-7.9-2.5-16-5.3-23.4c-2.8-7.5-7.4-14.5-14-18.7c-10.4-6.7-23.9-5.4-35.5-1.6
	c-9,3-17.8,7.5-24.2,14.8s-9.9,17.7-7.6,27.2c12.4-2.9,24.9-5.9,37.3-8.8l-1.4,1c8.3,4.1,14.2,11.8,16,20.9
	c1.8,9.2-0.6,18.7-6.6,25.8c8.5-3,17-6,25.4-9c5.2-1.9,10.8-4,13.9-8.8C752,186.7,751.1,179.4,750.1,172.8z"/>
</svg>
