<?xml version="1.0" encoding="utf-8"?>
<!-- Generator: Adobe Illustrator 19.0.0, SVG Export Plug-In . SVG Version: 6.00 Build 0)  -->
<svg version="1.1" id="Layer_1" xmlns="http://www.w3.org/2000/svg" xmlns:xlink="http://www.w3.org/1999/xlink" x="0px" y="0px"
	 viewBox="-17 19 64 64" style="enable-background:new -17 19 64 64;" xml:space="preserve">

<title></title>
<path class="st0" d="M10.9,55.1c-0.1,0-0.3,0-0.4-0.1l-3.8-1.6c-0.5-0.2-0.8-0.8-0.5-1.3c0.2-0.5,0.8-0.8,1.3-0.5l3.8,1.6
	c0.5,0.2,0.8,0.8,0.5,1.3C11.7,54.8,11.3,55.1,10.9,55.1z"/>
<path class="st0" d="M37.9,46.3l-4.2-4.2c-0.4-0.4-1-0.4-1.4,0s-0.4,1,0,1.4l2.5,2.5H27V29c0-1.7-1.3-3-3-3H-3c-1.7,0-3,1.3-3,3v36
	c0,1.2,0.7,2.3,1.9,2.8l18.8,8.1C14.7,76,14.9,76,15,76c0.2,0,0.4-0.1,0.5-0.2c0.3-0.2,0.5-0.5,0.5-0.8v-7h8c1.7,0,3-1.3,3-3V48h7.8
	l-2.5,2.5c-0.4,0.4-0.4,1,0,1.4c0.2,0.2,0.5,0.3,0.7,0.3s0.5-0.1,0.7-0.3l4.2-4.2C38.3,47.3,38.3,46.7,37.9,46.3z M14,73.5
	l-17.4-7.5C-3.8,65.8-4,65.4-4,65V29c0-0.1,0-0.2,0.1-0.3l17.9,7V73.5z M25,65c0,0.6-0.4,1-1,1h-8V35c0-0.4-0.3-0.8-0.6-0.9L-0.2,28
	H24c0.6,0,1,0.4,1,1V65z"/>
</svg>
