<?xml version="1.0" ?><!DOCTYPE svg  PUBLIC '-//W3C//DTD SVG 1.1//EN'  'http://www.w3.org/Graphics/SVG/1.1/DTD/svg11.dtd'><svg enable-background="new 0 0 91 91" height="91px" id="Layer_1" version="1.1" viewBox="0 0 91 91" width="91px" xml:space="preserve" xmlns="http://www.w3.org/2000/svg" xmlns:xlink="http://www.w3.org/1999/xlink"><g><g><g><path d="M85.76,37.315c-0.131-3.489-1.493-5.497-3.587-6.938c-2.1-1.422-5.078-2.089-8.024-2.081     c-2.728-0.009-5.419,0.564-7.238,1.384l-0.728,0.327l-0.729-0.327c-1.46-0.661-3.486-1.147-5.646-1.322l-3.728,0.051     c-2.192,0.246-4.293,0.891-5.887,1.969c-2.09,1.442-3.456,3.453-3.587,6.938c0,0.277-0.009,0.532-0.009,0.771     c0.038,4.923,1.167,6.701,2.534,9.185c1.414,2.439,3.03,5.562,2.987,11.345c-0.006,6.708,1.135,10.646,2.371,12.727     c1.258,2.093,1.68,2.408,3.051,2.408c1.455,0,1.955-1.466,2.016-2.235c0.279-2.842-0.208-7.279,1.193-12.016     c0.401-1.314,0.893-2.953,1.875-4.436c1.326-1.999,4.904-3.559,7.112,0c0.939,1.511,1.478,3.121,1.872,4.436     c1.077,3.605,1.391,7.379,1.139,10.26c-0.35,4,1.994,3.991,2.072,3.991c1.25,0,1.796-0.313,3.049-2.408     c1.242-2.081,2.379-6.019,2.37-12.727c-0.034-5.792,1.579-8.905,2.994-11.353c1.371-2.481,2.49-4.254,2.534-9.178     C85.769,37.841,85.762,37.587,85.76,37.315z" fill="#F4F2E8"/><path d="M42.133,45.424c-2.102-1.071-4.389-1.679-6.104-1.754l-0.688-0.039l-0.434-0.529     c-0.864-1.077-2.233-2.242-3.825-3.213l-2.881-1.415c-1.786-0.664-3.646-0.984-5.293-0.778c-2.167,0.295-4,1.31-5.455,3.938     c-0.107,0.211-0.218,0.407-0.308,0.585c-1.888,3.803-1.713,5.605-1.625,8.045c0.135,2.428,0.161,5.455-2.119,9.889     c-2.618,5.15-3.273,8.621-3.138,10.699c0.154,2.1,0.356,2.505,1.413,3.037c1.115,0.568,2.066-0.362,2.416-0.933     c1.319-2.076,2.674-5.675,5.595-8.766c0.818-0.854,1.832-1.926,3.168-2.681c1.799-1.02,5.153-0.826,5.466,2.767     c0.134,1.529-0.083,2.976-0.288,4.143c-0.578,3.188-1.807,6.208-3.119,8.322c-1.828,2.939-0.022,3.846,0.038,3.878     c0.958,0.484,1.5,0.458,3.279-0.664c1.763-1.116,4.174-3.699,6.779-8.86c2.223-4.466,4.68-6.231,6.719-7.557     c2.017-1.377,3.568-2.303,5.521-6.068c0.091-0.187,0.187-0.388,0.289-0.599c1.262-2.729,0.992-4.803-0.053-6.729     C46.424,48.235,44.396,46.563,42.133,45.424z" fill="#F4F2E8"/></g><g><path d="M88.642,52.647c-1.666-0.2-2.244-0.297-2.71-0.373c-0.637-0.106-1.062-0.17-2.671-0.317     c0.485-1.398,1.108-2.564,1.767-3.702l0.193-0.351c1.311-2.361,2.548-4.593,2.595-9.818l-0.01-0.847     c-0.144-3.832-1.565-6.549-4.485-8.56c-2.315-1.569-5.555-2.435-9.117-2.435h-0.118c-2.798,0-5.741,0.566-7.905,1.515     c-1.696-0.747-3.896-1.259-6.209-1.446c-0.064-0.007-0.129-0.008-0.192-0.007l-3.729,0.052c-0.066,0.001-0.134,0.006-0.2,0.012     c-2.663,0.3-5.018,1.099-6.822,2.319c-2.869,1.978-4.33,4.774-4.473,8.627l-0.009,0.786c0.026,3.375,0.557,5.497,1.284,7.218     c-0.834-0.635-1.76-1.216-2.766-1.722c-2.171-1.106-4.669-1.832-6.71-1.963c-1.035-1.231-2.518-2.467-4.206-3.496     c-0.053-0.031-0.106-0.063-0.163-0.09l-2.88-1.416c-0.062-0.03-0.125-0.058-0.189-0.081c-1.707-0.635-3.43-0.97-4.982-0.97     c-0.438,0-0.868,0.027-1.302,0.081c-3.068,0.418-5.349,2.046-7.003,5.035l-0.32,0.607c-2.026,4.085-1.941,6.316-1.85,8.68     l0.015,0.392c0.034,0.615,0.057,1.235,0.041,1.881c-0.206-0.086-0.425-0.146-0.66-0.16C9.264,51.88,2.52,53.109,2.233,53.162     c-1.114,0.203-1.852,1.271-1.647,2.386c0.181,0.989,1.043,1.684,2.015,1.684c0.121,0,0.245-0.012,0.371-0.036     c1.81-0.33,7.08-1.149,9.643-1.003c0.078,0.005,0.151-0.005,0.227-0.008c-0.293,0.924-0.692,1.92-1.267,3.038     C8.554,65.167,8.082,68.9,8.221,71.002c0.157,2.156,0.419,3.65,2.527,4.714c0.521,0.266,1.071,0.4,1.636,0.4     c1.606,0,2.84-1.08,3.44-2.061c0.435-0.684,0.856-1.482,1.303-2.33c1.025-1.946,2.188-4.153,4.092-6.169     c0.75-0.782,1.6-1.671,2.649-2.264c0.296-0.168,0.699-0.268,1.078-0.268c0.859,0,1.245,0.414,1.333,1.427     c0.108,1.238-0.063,2.467-0.263,3.599c-0.486,2.678-1.55,5.521-2.844,7.605c-1.016,1.633-1.347,3.138-0.984,4.473     c0.269,0.986,0.943,1.847,1.84,2.319c0.479,0.242,1.132,0.519,1.949,0.519c1.1,0,2.096-0.489,3.352-1.278     c1.766-1.117,4.5-3.702,7.518-9.679c1.938-3.896,3.944-5.416,6.04-6.776l0.294-0.2c1.952-1.328,3.798-2.58,5.913-6.666     l0.306-0.635c0.232-0.503,0.411-0.997,0.564-1.488c0.065,0.737,0.11,1.51,0.104,2.37c-0.007,7.681,1.44,11.73,2.664,13.785     c1.271,2.116,2.229,3.401,4.809,3.401c2.455,0,3.901-2.076,4.056-4.084c0.09-0.925,0.106-1.97,0.125-3.077     c0.039-2.447,0.087-5.492,1.009-8.601c0.375-1.232,0.801-2.63,1.604-3.841c0.388-0.585,1.24-1.207,2.054-1.207     c0.22,0,0.891,0,1.608,1.156c0.791,1.271,1.26,2.646,1.648,3.939c0.916,3.063,1.313,6.612,1.059,9.495     c-0.186,2.142,0.24,3.797,1.269,4.918c1.106,1.207,2.461,1.3,2.85,1.3c2.355,0,3.427-1.097,4.809-3.407     c1.218-2.042,2.67-6.092,2.659-13.791c-0.006-0.947,0.034-1.811,0.111-2.604c1.969,0.176,2.31,0.231,2.861,0.323     c0.478,0.08,1.134,0.188,2.889,0.399c0.084,0.011,0.166,0.016,0.248,0.016c1.023,0,1.908-0.766,2.034-1.807     C90.567,53.804,89.766,52.783,88.642,52.647z M45.694,55.978l-0.264,0.55c-1.614,3.115-2.784,3.91-4.552,5.111l-0.264,0.18     c-2.342,1.52-5.041,3.546-7.434,8.353c-2.727,5.401-4.958,7.363-6.042,8.049c-0.455,0.287-0.748,0.448-0.936,0.538     c0.062-0.204,0.188-0.512,0.452-0.937c1.576-2.538,2.814-5.832,3.397-9.048c0.249-1.419,0.459-2.968,0.312-4.678     c-0.273-3.142-2.4-5.173-5.42-5.173c-1.089,0-2.188,0.284-3.096,0.799c-1.573,0.889-2.741,2.107-3.651,3.059     c-2.252,2.382-3.609,4.961-4.701,7.033c-0.395,0.749-0.738,1.403-1.077,1.951c-0.032-0.208-0.069-0.534-0.108-1.049     c-0.084-1.288,0.184-4.252,2.916-9.628c2.456-4.776,2.497-8.15,2.344-10.899l-0.014-0.36c-0.082-2.139-0.137-3.55,1.416-6.68     l0.276-0.522c1.243-2.246,2.628-2.721,3.916-2.896c1.194-0.149,2.693,0.074,4.229,0.633l2.698,1.324     c1.325,0.818,2.494,1.798,3.229,2.714l0.372,0.455l2.777,3.939c0.4,0.568,1.034,0.871,1.679,0.871     c0.407,0,0.82-0.123,1.178-0.375c0.842-0.593,1.094-1.699,0.645-2.593c0.422,0.17,0.84,0.354,1.241,0.559     c2.049,1.031,3.684,2.447,4.474,3.864C46.318,52.285,46.756,53.683,45.694,55.978z M78.192,58.616     c0.009,7.106-1.3,10.363-2.079,11.67c-0.684,1.142-0.945,1.37-0.964,1.391c-0.006,0.002-0.05,0.014-0.175,0.018     c-0.075-0.118-0.286-0.573-0.184-1.758c0.302-3.421-0.143-7.439-1.216-11.028c-0.447-1.492-1.048-3.244-2.094-4.927     c-1.238-1.995-3.047-3.094-5.093-3.094c-2.098,0-4.246,1.193-5.473,3.041c-1.133,1.712-1.696,3.563-2.131,4.987     c-1.066,3.603-1.121,6.96-1.164,9.657c-0.016,1.064-0.03,1.983-0.108,2.783c-0.008,0.108-0.051,0.248-0.097,0.341     c-0.108-0.003-0.176-0.008-0.215-0.014c-0.127-0.119-0.394-0.469-0.944-1.393c-0.781-1.313-2.089-4.574-2.083-11.663     c0.044-6.156-1.662-9.623-3.243-12.348l-0.209-0.379c-1.226-2.217-2.038-3.681-2.07-7.817l0.009-0.694     c0.095-2.524,0.877-4.066,2.688-5.315c1.204-0.815,2.93-1.39,4.868-1.618l3.522-0.048c1.85,0.159,3.62,0.573,4.881,1.142     l0.621,0.279l4.974,2.639c0.307,0.163,0.636,0.24,0.96,0.24c0.734,0,1.444-0.396,1.812-1.09c0.531-0.999,0.151-2.241-0.849-2.772     l-0.599-0.317c0.842-0.119,1.708-0.184,2.552-0.184h0.117c2.713,0,5.197,0.63,6.806,1.721c1.823,1.254,2.604,2.797,2.699,5.261     l0.009,0.739c-0.038,4.166-0.852,5.631-2.08,7.847l-0.178,0.322C79.859,49.004,78.154,52.473,78.192,58.616z" fill="#3B6A75"/><path d="M20.616,24.35l11.435,8.265c0.363,0.264,0.783,0.39,1.2,0.39c0.636,0,1.263-0.295,1.662-0.85     c0.664-0.918,0.458-2.199-0.461-2.862L23.02,21.027c-0.918-0.665-2.202-0.459-2.863,0.46     C19.492,22.406,19.698,23.687,20.616,24.35z" fill="#3B6A75"/><path d="M37.128,26.631c0.194,0.976,1.051,1.649,2.009,1.649c0.133,0,0.269-0.014,0.404-0.04     c1.11-0.223,1.83-1.302,1.607-2.413L37.921,9.683c-0.224-1.11-1.311-1.832-2.413-1.608c-1.111,0.222-1.831,1.303-1.608,2.413     L37.128,26.631z" fill="#3B6A75"/><path d="M47.455,27.248c0.298,0.152,0.612,0.223,0.926,0.223c0.748,0,1.469-0.409,1.83-1.122l6.563-12.919     c0.513-1.01,0.11-2.244-0.899-2.757c-1.01-0.514-2.243-0.109-2.758,0.899l-6.563,12.919     C46.041,25.501,46.444,26.735,47.455,27.248z" fill="#3B6A75"/></g><g><path d="M58.074,40.543c0.924-0.655,1.142-1.935,0.486-2.859c-0.655-0.923-1.932-1.141-2.859-0.486l-8.506,6.03     c-0.923,0.653-1.141,1.934-0.486,2.858c0.402,0.563,1.033,0.865,1.676,0.865c0.41,0,0.824-0.123,1.184-0.379L58.074,40.543z" fill="#F16B72"/><path d="M61.246,44.374c-0.631-0.939-1.904-1.191-2.846-0.563l-8.527,5.708c-0.94,0.629-1.193,1.902-0.564,2.845     c0.396,0.59,1.045,0.91,1.707,0.91c0.393,0,0.788-0.113,1.14-0.348l8.528-5.708C61.624,46.589,61.877,45.316,61.246,44.374z" fill="#F16B72"/><path d="M55.81,53.504l-4.871,3.436c-0.925,0.652-1.146,1.933-0.493,2.857c0.399,0.566,1.033,0.869,1.678,0.869     c0.408,0,0.82-0.122,1.18-0.376l4.869-3.435c0.926-0.652,1.147-1.933,0.494-2.857C58.015,53.072,56.732,52.851,55.81,53.504z" fill="#F16B72"/></g></g><g><path d="M28.715,44.444c-1.498-1.053-3.192-1.36-4.775-0.868c-1.654,0.515-3.022,1.851-3.663,3.575    c-0.395,1.062,0.147,2.241,1.209,2.636c0.235,0.088,0.476,0.129,0.713,0.129c0.833,0,1.616-0.511,1.924-1.339    c0.19-0.517,0.607-0.952,1.035-1.085c0.132-0.041,0.529-0.165,1.199,0.308c0.927,0.65,2.206,0.427,2.857-0.499    C29.864,46.375,29.641,45.095,28.715,44.444z" fill="#FFFFFF"/><path d="M79.465,34.877c-0.583-0.557-1.645-1.202-3.345-1.14c-1.132,0.045-2.014,0.998-1.971,2.129    c0.046,1.133,0.999,1.997,2.129,1.97c0.034-0.001,0.065-0.001,0.093-0.001c0.176,0,0.25,0.021,0.264,0.014    c0.231,0.319,0.242,1.593,0.249,2.285c0.01,1.127,0.925,1.994,2.049,1.994c0.006,0,0.012,0,0.019-0.001    c1.133-0.009,2.042-0.974,2.033-2.106C80.971,38.448,80.952,36.295,79.465,34.877z" fill="#FFFFFF"/></g></g></svg>