<?xml version="1.0" encoding="utf-8"?>
<!-- Generator: Adobe Illustrator 19.0.0, SVG Export Plug-In . SVG Version: 6.00 Build 0)  -->
<svg version="1.1" id="Calque_1" xmlns="http://www.w3.org/2000/svg" xmlns:xlink="http://www.w3.org/1999/xlink" x="0px" y="0px"
	 viewBox="0 0 100 100" style="enable-background:new 0 0 100 100;" xml:space="preserve">
<style type="text/css">
	.st0{fill:#969696;}
</style>
<polygon id="XMLID_55_" class="st0" points="33.5,0 0,33.5 0,32.1 32.1,0 "/>
<polygon id="XMLID_53_" class="st0" points="50.5,0 0,50.5 0,49 49,0 "/>
<polygon id="XMLID_8_" class="st0" points="4.3,0 0,4.3 0,2.9 2.9,0 "/>
<polygon id="XMLID_51_" class="st0" points="16.5,0 0,16.5 0,15.1 15.1,0 "/>
<polygon id="XMLID_45_" class="st0" points="67.4,0 0,67.4 0,66 66,0 "/>
<polygon id="XMLID_40_" class="st0" points="84.4,0 0,84.4 0,83 83,0 "/>
<polygon id="XMLID_36_" class="st0" points="100,0 100,1.4 1.4,100 0,100 0,100 100,0 "/>
<polygon id="XMLID_32_" class="st0" points="100,16.9 100,18.3 18.3,100 16.9,100 "/>
<polygon id="XMLID_28_" class="st0" points="100,33.9 100,35.3 35.3,100 33.9,100 "/>
<polygon id="XMLID_24_" class="st0" points="100,50.9 100,52.3 52.3,100 50.9,100 "/>
<polygon id="XMLID_20_" class="st0" points="100,67.8 100,69.3 69.2,100 67.8,100 "/>
<polygon id="XMLID_16_" class="st0" points="100,84.8 100,86.2 86.2,100 84.8,100 "/>
<polygon id="XMLID_9_" class="st0" points="100,97.4 100,98.8 98.8,100 97.4,100 "/>
</svg>
